# xmcd
#
# Track frame offsets:
#	150
#	13450
#	25825
#	42725
#	52312
#	68525
#	81162
#	96875
#	107400
#	118200
#	129875
#	146100
#	158575
#	176537
#	189875
#	202050
#
# Disc length: 2892 seconds
#
# Revision: 1
# Processed by: cddbd v1.5.2PL0 Copyright (c) Steve Scherf et al.
# Submitted via: EasyCDDAExtractor 11.1.0.1
#
DISCID=e10b4a10
DTITLE=Lynn Anderson - When I Dream
DYEAR=1982
DGENRE=Country
TTITLE0=Top Of The World
TTITLE1=Listen To A Country Song
TTITLE2=Blue Bayou
TTITLE3=Snowbird
TTITLE4=When I Dream
TTITLE5=I Fall To Pieces
TTITLE6=You Need Me
TTITLE7=Heartbreak Hotel
TTITLE8=Heaven's Just A Sin Away
TTITLE9=That'll Be The Day
TTITLE10=The Devil Went Down To Georgia
TTITLE11=Stand By Your Man
TTITLE12=Midnight Train To Georgia
TTITLE13=Rose Garden
TTITLE14=You Don't Have To Say You Love Me
TTITLE15=Desperado
EXTD=
EXTT0=
EXTT1=
EXTT2=
EXTT3=
EXTT4=
EXTT5=
EXTT6=
EXTT7=
EXTT8=
EXTT9=
EXTT10=
EXTT11=
EXTT12=
EXTT13=
EXTT14=
EXTT15=
PLAYORDER=
